<?xml version="1.0" encoding="utf-8"?>
<!-- Generator: Adobe Illustrator 18.0.0, SVG Export Plug-In . SVG Version: 6.00 Build 0)  -->
<!DOCTYPE svg PUBLIC "-//W3C//DTD SVG 1.1//EN" "http://www.w3.org/Graphics/SVG/1.1/DTD/svg11.dtd">
<svg version="1.1" id="Layer_1" xmlns="http://www.w3.org/2000/svg" xmlns:xlink="http://www.w3.org/1999/xlink" x="0px" y="0px"
	 viewBox="-13.6 13 52 49.1" enable-background="new -13.6 13 52 49.1" xml:space="preserve">
<rect x="-14.3" y="12.8" fill="#00C500" width="53.4" height="50.4"/>
<g>
	<path fill="#FFFFFF" d="M24.6,37c0.1-0.3,0.1-0.5,0.1-0.8c0-0.3,0-0.8,0-1c-0.3-5.2-5.7-9.4-12.4-9.4C5.5,25.9,0,30.3,0,35.7
		c0,5,4.7,9.1,10.7,9.7c0.4,0,0.6,0.4,0.6,0.7l-0.3,2.3c-0.1,0.5,0.5,0.9,1,0.7c5.1-2.5,8.2-5,10-7.2c0.3-0.4,1.4-1.9,1.6-2.3
		C24.2,38.8,24.5,37.9,24.6,37L24.6,37z"/>
	<path fill="#00C500" d="M5.6,37.7v-4.1c0-0.4-0.3-0.6-0.6-0.6c-0.4,0-0.6,0.3-0.6,0.6v4.8c0,0.4,0.3,0.6,0.6,0.6h2.5
		c0.4,0,0.6-0.3,0.6-0.6c0-0.4-0.3-0.6-0.6-0.6H5.6L5.6,37.7z"/>
	<path fill="#00C500" d="M9.5,39H9.2c-0.3,0-0.5-0.2-0.5-0.5v-5.1c0-0.3,0.2-0.5,0.5-0.5h0.3c0.3,0,0.5,0.2,0.5,0.5v5.1
		C10,38.8,9.7,39,9.5,39L9.5,39z"/>
	<path fill="#00C500" d="M14.6,33.6v2.9c0,0-2.5-3.3-2.6-3.3c-0.1-0.1-0.3-0.2-0.5-0.2c-0.3,0-0.6,0.3-0.6,0.7v4.8
		c0,0.4,0.3,0.6,0.6,0.6c0.4,0,0.6-0.3,0.6-0.6v-2.9c0,0,2.6,3.3,2.6,3.4c0.1,0.1,0.3,0.2,0.4,0.2c0.4,0,0.6-0.3,0.6-0.7v-4.8
		c0-0.4-0.3-0.6-0.6-0.6C14.9,32.9,14.6,33.2,14.6,33.6L14.6,33.6z"/>
	<path fill="#00C500" d="M20.6,33.6c0-0.4-0.3-0.6-0.6-0.6h-2.5c-0.4,0-0.6,0.3-0.6,0.6v4.8c0,0.4,0.3,0.6,0.6,0.6h2.5
		c0.4,0,0.6-0.3,0.6-0.6c0-0.4-0.3-0.6-0.6-0.6H18v-1.1h1.9c0.4,0,0.6-0.3,0.6-0.6c0-0.4-0.3-0.6-0.6-0.6H18v-1.1h1.9
		C20.3,34.2,20.6,33.9,20.6,33.6L20.6,33.6z"/>
</g>
</svg>
