<svg width="360" height="72" viewBox="0 0 360 72" version="1.1" xmlns="http://www.w3.org/2000/svg" xmlns:xlink="http://www.w3.org/1999/xlink">
<title>poweredby</title>
<desc>Created using Figma</desc>
<g id="Canvas" transform="matrix(3 0 0 3 2670 -39237)">
<g id="poweredby">
<g id="Powered By">
<use xlink:href="#path0_fill" transform="translate(-891 13084)"/>
</g>
<g id="logo_04">
<g id="Canvas">
<g id="logo 04">
<g id="THE">
<g id="Vector">
<use xlink:href="#path1_fill" transform="matrix(3 0 0 3 -823 13087.5)"/>
</g>
</g>
<g id="SOLAR">
<g id="Vector">
<use xlink:href="#path2_fill" transform="matrix(3 0 0 3 -804.729 13087.2)"/>
</g>
</g>
<g id="Ellipse 2">
<g id="Vector">
<use xlink:href="#path3_fill" transform="matrix(3 0 0 3 -805.215 13079)"/>
</g>
</g>
<g id="Ellipse 2">
<g id="Vector">
<use xlink:href="#path4_fill" transform="matrix(3 0 0 3 -789.381 13080.3)"/>
</g>
</g>
</g>
</g>
</g>
</g>
</g>
<defs>
<path id="path0_fill" d="M 1.02 2.684C 1.324 2.612 1.652 2.564 2.004 2.54C 2.356 2.516 2.704 2.504 3.048 2.504C 3.416 2.504 3.788 2.54 4.164 2.612C 4.548 2.684 4.896 2.816 5.208 3.008C 5.52 3.2 5.772 3.464 5.964 3.8C 6.164 4.136 6.264 4.564 6.264 5.084C 6.264 5.596 6.172 6.028 5.988 6.38C 5.804 6.732 5.56 7.02 5.256 7.244C 4.952 7.46 4.604 7.616 4.212 7.712C 3.82 7.808 3.416 7.856 3 7.856C 2.96 7.856 2.892 7.856 2.796 7.856C 2.708 7.856 2.612 7.856 2.508 7.856C 2.412 7.848 2.316 7.84 2.22 7.832C 2.124 7.824 2.056 7.816 2.016 7.808L 2.016 11L 1.02 11L 1.02 2.684ZM 3.072 3.368C 2.864 3.368 2.664 3.372 2.472 3.38C 2.28 3.388 2.128 3.408 2.016 3.44L 2.016 6.92C 2.056 6.936 2.12 6.948 2.208 6.956C 2.296 6.956 2.388 6.96 2.484 6.968C 2.58 6.968 2.672 6.968 2.76 6.968C 2.848 6.968 2.912 6.968 2.952 6.968C 3.224 6.968 3.492 6.944 3.756 6.896C 4.028 6.84 4.272 6.744 4.488 6.608C 4.704 6.472 4.876 6.28 5.004 6.032C 5.14 5.784 5.208 5.468 5.208 5.084C 5.208 4.756 5.144 4.484 5.016 4.268C 4.896 4.044 4.732 3.868 4.524 3.74C 4.324 3.604 4.096 3.508 3.84 3.452C 3.584 3.396 3.328 3.368 3.072 3.368ZM 6.85753 8C 6.85753 6.984 7.08153 6.208 7.52953 5.672C 7.98553 5.128 8.63753 4.856 9.48553 4.856C 9.93353 4.856 10.3215 4.932 10.6495 5.084C 10.9855 5.228 11.2615 5.44 11.4775 5.72C 11.6935 5.992 11.8535 6.324 11.9575 6.716C 12.0615 7.1 12.1135 7.528 12.1135 8C 12.1135 9.016 11.8855 9.796 11.4295 10.34C 10.9815 10.876 10.3335 11.144 9.48553 11.144C 9.03753 11.144 8.64553 11.072 8.30953 10.928C 7.98153 10.776 7.70953 10.564 7.49353 10.292C 7.27753 10.012 7.11753 9.68 7.01353 9.296C 6.90953 8.904 6.85753 8.472 6.85753 8ZM 7.85353 8C 7.85353 8.304 7.88153 8.596 7.93753 8.876C 8.00153 9.156 8.09753 9.4 8.22553 9.608C 8.35353 9.816 8.52153 9.984 8.72953 10.112C 8.93753 10.24 9.18953 10.304 9.48553 10.304C 10.5735 10.312 11.1175 9.544 11.1175 8C 11.1175 7.688 11.0855 7.392 11.0215 7.112C 10.9655 6.832 10.8735 6.588 10.7455 6.38C 10.6175 6.172 10.4495 6.008 10.2415 5.888C 10.0335 5.76 9.78153 5.696 9.48553 5.696C 8.39753 5.688 7.85353 6.456 7.85353 8ZM 17.3862 5L 18.7662 8.504L 19.0662 9.656L 19.0902 9.656L 19.3182 8.48L 20.3862 5L 21.2982 5L 19.2822 11.132L 18.8142 11.132L 17.2422 7.172L 17.0142 6.188L 16.9782 6.188L 16.7382 7.184L 15.2262 11.132L 14.7582 11.132L 12.6702 5L 13.7142 5L 14.9022 8.492L 15.1062 9.656L 15.1182 9.656L 15.4062 8.468L 16.6902 5L 17.3862 5ZM 26.5735 10.52C 26.3335 10.712 26.0295 10.864 25.6615 10.976C 25.3015 11.088 24.9175 11.144 24.5095 11.144C 24.0535 11.144 23.6575 11.072 23.3215 10.928C 22.9855 10.776 22.7095 10.564 22.4935 10.292C 22.2775 10.012 22.1175 9.68 22.0135 9.296C 21.9095 8.912 21.8575 8.48 21.8575 8C 21.8575 6.976 22.0855 6.196 22.5415 5.66C 22.9975 5.124 23.6495 4.856 24.4975 4.856C 24.7695 4.856 25.0415 4.888 25.3135 4.952C 25.5855 5.008 25.8295 5.12 26.0455 5.288C 26.2615 5.456 26.4375 5.696 26.5735 6.008C 26.7095 6.312 26.7775 6.716 26.7775 7.22C 26.7775 7.484 26.7535 7.776 26.7055 8.096L 22.8535 8.096C 22.8535 8.448 22.8895 8.76 22.9615 9.032C 23.0335 9.304 23.1455 9.536 23.2975 9.728C 23.4495 9.912 23.6455 10.056 23.8855 10.16C 24.1335 10.256 24.4335 10.304 24.7855 10.304C 25.0575 10.304 25.3295 10.256 25.6015 10.16C 25.8735 10.064 26.0775 9.952 26.2135 9.824L 26.5735 10.52ZM 24.5095 5.696C 24.0375 5.696 23.6575 5.82 23.3695 6.068C 23.0895 6.316 22.9215 6.74 22.8655 7.34L 25.8415 7.34C 25.8415 6.732 25.7255 6.308 25.4935 6.068C 25.2615 5.82 24.9335 5.696 24.5095 5.696ZM 31.1193 5.924C 30.8793 5.844 30.6513 5.804 30.4353 5.804C 30.0913 5.804 29.8193 5.9 29.6193 6.092C 29.4193 6.276 29.2953 6.512 29.2473 6.8L 29.2473 11L 28.2873 11L 28.2873 5L 28.9593 5L 29.1393 5.732L 29.1873 5.732C 29.3393 5.46 29.5193 5.252 29.7273 5.108C 29.9433 4.956 30.2153 4.88 30.5433 4.88C 30.7753 4.88 31.0353 4.92 31.3233 5L 31.1193 5.924ZM 36.7454 10.52C 36.5054 10.712 36.2014 10.864 35.8334 10.976C 35.4734 11.088 35.0894 11.144 34.6814 11.144C 34.2254 11.144 33.8294 11.072 33.4934 10.928C 33.1574 10.776 32.8814 10.564 32.6654 10.292C 32.4494 10.012 32.2894 9.68 32.1854 9.296C 32.0814 8.912 32.0294 8.48 32.0294 8C 32.0294 6.976 32.2574 6.196 32.7134 5.66C 33.1694 5.124 33.8214 4.856 34.6694 4.856C 34.9414 4.856 35.2134 4.888 35.4854 4.952C 35.7574 5.008 36.0014 5.12 36.2174 5.288C 36.4334 5.456 36.6094 5.696 36.7454 6.008C 36.8814 6.312 36.9494 6.716 36.9494 7.22C 36.9494 7.484 36.9254 7.776 36.8774 8.096L 33.0254 8.096C 33.0254 8.448 33.0614 8.76 33.1334 9.032C 33.2054 9.304 33.3174 9.536 33.4694 9.728C 33.6214 9.912 33.8174 10.056 34.0574 10.16C 34.3054 10.256 34.6054 10.304 34.9574 10.304C 35.2294 10.304 35.5014 10.256 35.7734 10.16C 36.0454 10.064 36.2494 9.952 36.3854 9.824L 36.7454 10.52ZM 34.6814 5.696C 34.2094 5.696 33.8294 5.82 33.5414 6.068C 33.2614 6.316 33.0934 6.74 33.0374 7.34L 36.0134 7.34C 36.0134 6.732 35.8974 6.308 35.6654 6.068C 35.4334 5.82 35.1054 5.696 34.6814 5.696ZM 43.0672 8.936C 43.0672 9.344 43.0712 9.716 43.0792 10.052C 43.0872 10.38 43.1232 10.704 43.1872 11.024L 42.5392 11.024L 42.2992 10.172L 42.2512 10.172C 42.0912 10.452 41.8592 10.684 41.5552 10.868C 41.2512 11.052 40.8952 11.144 40.4872 11.144C 39.6872 11.144 39.0912 10.892 38.6992 10.388C 38.3152 9.884 38.1232 9.096 38.1232 8.024C 38.1232 7 38.3632 6.224 38.8432 5.696C 39.3312 5.16 39.9992 4.892 40.8472 4.892C 41.1432 4.892 41.3752 4.908 41.5432 4.94C 41.7192 4.972 41.9072 5.024 42.1072 5.096L 42.1072 2.6L 43.0672 2.6L 43.0672 8.936ZM 40.6432 10.304C 41.0512 10.304 41.3752 10.2 41.6152 9.992C 41.8552 9.776 42.0192 9.452 42.1072 9.02L 42.1072 6.044C 41.9632 5.932 41.7992 5.852 41.6152 5.804C 41.4312 5.756 41.1872 5.732 40.8832 5.732C 40.3312 5.732 39.8992 5.916 39.5872 6.284C 39.2752 6.644 39.1192 7.224 39.1192 8.024C 39.1192 8.352 39.1432 8.656 39.1912 8.936C 39.2472 9.216 39.3352 9.456 39.4552 9.656C 39.5752 9.856 39.7312 10.016 39.9232 10.136C 40.1232 10.248 40.3632 10.304 40.6432 10.304ZM 53.2754 4.52C 53.2754 4.72 53.2434 4.924 53.1794 5.132C 53.1154 5.34 53.0194 5.536 52.8914 5.72C 52.7634 5.896 52.5994 6.052 52.3994 6.188C 52.1994 6.324 51.9634 6.428 51.6914 6.5L 51.6914 6.548C 51.9314 6.588 52.1594 6.656 52.3754 6.752C 52.5994 6.848 52.7954 6.98 52.9634 7.148C 53.1314 7.316 53.2674 7.52 53.3714 7.76C 53.4754 8 53.5274 8.284 53.5274 8.612C 53.5274 9.044 53.4354 9.42 53.2514 9.74C 53.0754 10.052 52.8394 10.308 52.5434 10.508C 52.2554 10.708 51.9234 10.856 51.5474 10.952C 51.1714 11.048 50.7874 11.096 50.3954 11.096C 50.2594 11.096 50.0994 11.096 49.9154 11.096C 49.7314 11.096 49.5394 11.088 49.3394 11.072C 49.1394 11.064 48.9394 11.048 48.7394 11.024C 48.5394 11.008 48.3634 10.98 48.2114 10.94L 48.2114 2.672C 48.5074 2.624 48.8514 2.584 49.2434 2.552C 49.6354 2.52 50.0634 2.504 50.5274 2.504C 50.8394 2.504 51.1554 2.532 51.4754 2.588C 51.8034 2.636 52.0994 2.736 52.3634 2.888C 52.6274 3.032 52.8434 3.236 53.0114 3.5C 53.1874 3.764 53.2754 4.104 53.2754 4.52ZM 50.4914 10.232C 50.7474 10.232 50.9954 10.204 51.2354 10.148C 51.4754 10.084 51.6874 9.988 51.8714 9.86C 52.0554 9.724 52.1994 9.56 52.3034 9.368C 52.4154 9.176 52.4714 8.948 52.4714 8.684C 52.4714 8.356 52.4034 8.092 52.2674 7.892C 52.1394 7.692 51.9674 7.536 51.7514 7.424C 51.5434 7.312 51.3074 7.236 51.0434 7.196C 50.7794 7.156 50.5154 7.136 50.2514 7.136L 49.2074 7.136L 49.2074 10.148C 49.2634 10.164 49.3434 10.176 49.4474 10.184C 49.5514 10.192 49.6634 10.2 49.7834 10.208C 49.9034 10.216 50.0274 10.224 50.1554 10.232C 50.2834 10.232 50.3954 10.232 50.4914 10.232ZM 49.8314 6.296C 49.9674 6.296 50.1314 6.292 50.3234 6.284C 50.5154 6.276 50.6754 6.264 50.8034 6.248C 50.9954 6.184 51.1754 6.108 51.3434 6.02C 51.5114 5.924 51.6594 5.816 51.7874 5.696C 51.9234 5.568 52.0274 5.424 52.0994 5.264C 52.1794 5.096 52.2194 4.916 52.2194 4.724C 52.2194 4.46 52.1674 4.244 52.0634 4.076C 51.9674 3.9 51.8354 3.76 51.6674 3.656C 51.4994 3.552 51.3074 3.48 51.0914 3.44C 50.8754 3.392 50.6554 3.368 50.4314 3.368C 50.1674 3.368 49.9234 3.376 49.6994 3.392C 49.4834 3.4 49.3194 3.416 49.2074 3.44L 49.2074 6.296L 49.8314 6.296ZM 56.8872 8.888L 57.2232 10.04L 57.2832 10.04L 57.5472 8.876L 58.7112 5L 59.6832 5L 57.9072 10.388C 57.7712 10.78 57.6352 11.16 57.4992 11.528C 57.3712 11.896 57.2272 12.224 57.0672 12.512C 56.9072 12.8 56.7272 13.028 56.5272 13.196C 56.3272 13.372 56.0952 13.46 55.8312 13.46C 55.5432 13.46 55.3072 13.42 55.1232 13.34L 55.2912 12.512C 55.3952 12.552 55.4952 12.572 55.5912 12.572C 55.8152 12.572 56.0312 12.452 56.2392 12.212C 56.4472 11.98 56.6192 11.576 56.7552 11L 54.3432 5L 55.4472 5L 56.8872 8.888Z"/>
<path id="path1_fill" d="M 0.787093 2.39617C 0.787093 2.42519 0.796895 2.45016 0.816501 2.47105C 0.837259 2.49078 0.861477 2.50065 0.889156 2.50065C 0.917987 2.50065 0.942781 2.49078 0.96354 2.47105C 0.983145 2.45016 0.992948 2.42519 0.992948 2.39617L 0.992948 0.21079L 1.67625 0.21079C 1.70508 0.21079 1.7293 0.200922 1.7489 0.181187C 1.76966 0.161451 1.78004 0.137072 1.78004 0.10805C 1.78004 0.0790278 1.76966 0.054649 1.7489 0.034914C 1.7293 0.0140176 1.70508 0.00356943 1.67625 0.00356943L 0.103792 0.00356943C 0.0749612 0.00356943 0.0501663 0.0140176 0.0294079 0.034914C 0.00980259 0.054649 1.32882e-09 0.0790278 1.32882e-09 0.10805C 1.32882e-09 0.137072 0.00980259 0.161451 0.0294079 0.181187C 0.0501663 0.200922 0.0749612 0.21079 0.103792 0.21079L 0.787093 0.21079L 0.787093 2.39617ZM 3.62859 2.50065C 3.65742 2.50065 3.68163 2.4902 3.70124 2.46931C 3.722 2.44958 3.73238 2.42519 3.73238 2.39617L 3.73238 0.109791C 3.73238 0.0807694 3.722 0.0563906 3.70124 0.0366557C 3.68163 0.0157593 3.65742 0.00531109 3.62859 0.00531109C 3.59976 0.00531109 3.57496 0.0157593 3.5542 0.0366557C 3.5346 0.0563906 3.52479 0.0807694 3.52479 0.109791L 3.52479 1.14763L 2.11148 1.14763L 2.11148 0.109791C 2.11148 0.0807694 2.10169 0.0563906 2.08208 0.0366557C 2.06132 0.0157593 2.03653 0.00531109 2.00769 0.00531109C 1.97886 0.00531109 1.95464 0.0157593 1.93504 0.0366557C 1.91428 0.0563906 1.9039 0.0807694 1.9039 0.109791L 1.9039 2.39617C 1.9039 2.42519 1.91428 2.44958 1.93504 2.46931C 1.95464 2.4902 1.97886 2.50065 2.00769 2.50065C 2.03653 2.50065 2.06132 2.4902 2.08208 2.46931C 2.10169 2.44958 2.11148 2.42519 2.11148 2.39617L 2.11148 1.35833L 3.52479 1.35833L 3.52479 2.39617C 3.52479 2.42519 3.5346 2.44958 3.5542 2.46931C 3.57496 2.4902 3.59976 2.50065 3.62859 2.50065ZM 5.57919 2.50065C 5.60803 2.50065 5.63224 2.4902 5.65184 2.46931C 5.6726 2.44958 5.68298 2.42519 5.68298 2.39617C 5.68298 2.36715 5.6726 2.34277 5.65184 2.32303C 5.63224 2.30214 5.60803 2.29169 5.57919 2.29169L 4.30946 2.29169L 4.30946 1.35485L 5.25917 1.35485C 5.288 1.35485 5.31221 1.3444 5.33181 1.3235C 5.35257 1.30377 5.36295 1.27939 5.36295 1.25037C 5.36295 1.22135 5.35257 1.19697 5.33181 1.17723C 5.31221 1.15633 5.288 1.14589 5.25917 1.14589L 4.30946 1.14589L 4.30946 0.209048L 5.57919 0.21253C 5.60803 0.21253 5.63224 0.202663 5.65184 0.182927C 5.6726 0.162032 5.68298 0.137072 5.68298 0.10805C 5.68298 0.0801892 5.6726 0.0558104 5.65184 0.034914C 5.63224 0.0140176 5.60803 0.00356943 5.57919 0.00356943L 4.20567 8.70215e-05C 4.178 -0.00107346 4.15377 0.00937474 4.13301 0.0314316C 4.11225 0.0511665 4.10188 0.0755453 4.10188 0.104567L 4.10188 2.39617C 4.10188 2.42519 4.11225 2.44958 4.13301 2.46931C 4.15262 2.4902 4.17684 2.50065 4.20567 2.50065L 5.57919 2.50065Z"/>
<path id="path2_fill" d="M 1.79533 1.89948C 1.80406 1.70871 1.74172 1.54242 1.60832 1.40061C 1.44624 1.22741 1.21247 1.1383 0.907019 1.13328L 0.897664 1.13328C 0.715638 1.13077 0.585976 1.08873 0.508677 1.00715C 0.460053 0.954446 0.436988 0.895458 0.439482 0.830196C 0.444468 0.723516 0.488728 0.633155 0.572261 0.559111C 0.657041 0.485068 0.758028 0.448046 0.87522 0.448046C 0.98992 0.448046 1.09153 0.46875 1.18005 0.510167C 1.28104 0.557858 1.34275 0.623747 1.3652 0.707834C 1.38016 0.766822 1.41382 0.811998 1.46618 0.843372C 1.51855 0.873492 1.57403 0.881029 1.63263 0.865964C 1.69123 0.850899 1.73548 0.81702 1.76541 0.764307C 1.79657 0.711593 1.80468 0.655747 1.78972 0.596759C 1.73735 0.395959 1.61455 0.242847 1.42131 0.137426C 1.26047 0.049574 1.07844 0.00564821 0.87522 0.00564821C 0.639586 0.00564821 0.437612 0.0834593 0.2693 0.239081C 0.100987 0.394706 0.0118438 0.585463 0.00187037 0.811372C -0.00685732 1.00088 0.0554804 1.16717 0.188883 1.31024C 0.350962 1.48218 0.584729 1.57066 0.890186 1.57568C 0.891431 1.57568 0.892675 1.57568 0.89392 1.57568C 0.891431 1.57568 0.892675 1.57568 0.897664 1.57568L 0.899531 1.57568C 1.08156 1.57819 1.21122 1.62086 1.28852 1.70369C 1.33714 1.75515 1.36021 1.8135 1.35772 1.87876C 1.35273 1.9867 1.30785 2.07706 1.22306 2.14985C 1.13953 2.22389 1.03917 2.26092 0.921975 2.26092C 0.807275 2.26092 0.705041 2.24021 0.615275 2.19879C 0.515534 2.1511 0.454443 2.08521 0.432001 2.00113C 0.417041 1.94215 0.383377 1.89696 0.331014 1.86559C 0.27865 1.83547 0.22317 1.82794 0.164572 1.843C 0.105975 1.85806 0.0610913 1.89194 0.0299225 1.94465C 3.48139e-07 1.99737 -0.00748066 2.05321 0.00748042 2.1122C 0.0598447 2.313 0.18265 2.46612 0.375897 2.57154C 0.536729 2.65939 0.718755 2.70331 0.921975 2.70331C 1.15636 2.70331 1.35834 2.6255 1.5279 2.46988C 1.69621 2.31425 1.78535 2.12412 1.79533 1.89948ZM 3.44389 0.444278C 3.69199 0.444278 3.90457 0.532759 4.08161 0.709714C 4.2574 0.887931 4.3453 1.10191 4.3453 1.35166C 4.3453 1.60141 4.2574 1.81475 4.08161 1.99172C 3.90457 2.16993 3.69199 2.25903 3.44389 2.25903C 3.19578 2.25903 2.98384 2.16993 2.80805 1.99172C 2.631 1.81475 2.54248 1.60141 2.54248 1.35166C 2.54248 1.10191 2.631 0.887931 2.80805 0.709714C 2.98384 0.532759 3.19578 0.444278 3.44389 0.444278ZM 3.44389 2.70331C 3.81418 2.70331 4.13086 2.57091 4.39392 2.3061C 4.65573 2.04254 4.78664 1.7244 4.78664 1.35166C 4.78664 0.978919 4.65573 0.660143 4.39392 0.395333C 4.13086 0.131777 3.81418 2.23256e-08 3.44389 2.23256e-08C 3.0736 2.23256e-08 2.75755 0.131777 2.49574 0.395333C 2.23267 0.660143 2.10114 0.978919 2.10114 1.35166C 2.10114 1.7244 2.23267 2.04254 2.49574 2.3061C 2.75755 2.57091 3.0736 2.70331 3.44389 2.70331ZM 5.52071 0.00376577C 5.45962 0.00376577 5.40789 0.0257282 5.36549 0.069654C 5.32185 0.112325 5.30004 0.164408 5.30004 0.225905L 5.30004 2.48117C 5.30004 2.54267 5.32185 2.59475 5.36549 2.63742C 5.40789 2.68135 5.45962 2.70331 5.52071 2.70331L 6.73069 2.70331C 6.79178 2.70331 6.84415 2.68135 6.88778 2.63742C 6.93017 2.59475 6.95136 2.54267 6.95136 2.48117C 6.95136 2.41968 6.93017 2.36759 6.88778 2.32492C 6.84415 2.281 6.79178 2.25903 6.73069 2.25903L 5.74139 2.25903L 5.74139 0.225905C 5.74139 0.164408 5.71957 0.112325 5.67593 0.069654C 5.63354 0.0257282 5.58181 0.00376577 5.52071 0.00376577ZM 7.89115 1.68675L 8.25021 0.813251L 8.61115 1.68675L 7.89115 1.68675ZM 7.2422 2.68637C 7.26964 2.69767 7.29769 2.70331 7.32637 2.70331C 7.42486 2.70331 7.4928 2.6575 7.53021 2.56589L 7.70975 2.12915L 8.79255 2.12915L 8.97209 2.56589C 9.00949 2.6575 9.07743 2.70331 9.17593 2.70331C 9.2046 2.70331 9.23266 2.69767 9.26009 2.68637C 9.31619 2.66252 9.35609 2.62237 9.37978 2.56589C 9.40221 2.50941 9.40221 2.45293 9.37978 2.39646L 9.14227 1.82229C 9.14227 1.82229 9.14227 1.82167 9.14227 1.8204L 8.45406 0.14872C 8.45157 0.142445 8.44845 0.136171 8.4447 0.129895C 8.4447 0.12864 8.44283 0.125503 8.43909 0.120482C 8.43536 0.115462 8.43349 0.112325 8.43349 0.11107C 8.43349 0.109815 8.43099 0.106678 8.426 0.101657L 8.42039 0.0941272C 8.42039 0.0928723 8.4179 0.089734 8.41291 0.0847142C 8.40917 0.0809494 8.4073 0.0784395 8.4073 0.0771846C 8.40481 0.0759296 8.40169 0.0734188 8.39796 0.069654C 8.39421 0.0658891 8.39172 0.0640067 8.39047 0.0640067C 8.38922 0.0627518 8.38611 0.060241 8.38112 0.0564762C 8.37613 0.0527113 8.37364 0.0508289 8.37364 0.0508289C 8.37239 0.049574 8.36866 0.0470641 8.36242 0.0432983C 8.35619 0.0395335 8.35369 0.0382785 8.35494 0.0395335C 8.34247 0.0320038 8.32876 0.0263557 8.3138 0.0225908C 8.31629 0.0225908 8.3138 0.0219634 8.30631 0.0207085C 8.30008 0.0181986 8.29572 0.0169436 8.29322 0.0169436C 8.29322 0.0169436 8.29011 0.0163161 8.28388 0.0150612C 8.27639 0.0138053 8.27266 0.0131778 8.27266 0.0131778C 8.27266 0.0131778 8.26891 0.0131778 8.26143 0.0131778C 8.25645 0.0131778 8.2527 0.0131778 8.25021 0.0131778C 8.24897 0.0131778 8.24585 0.0131778 8.24086 0.0131778C 8.23462 0.0131778 8.23089 0.0131778 8.22964 0.0131778C 8.22964 0.0131778 8.22652 0.0138053 8.22029 0.0150612C 8.21406 0.0163161 8.20969 0.0169436 8.2072 0.0169436L 8.19971 0.018826C 8.19224 0.0213359 8.18787 0.0225908 8.18662 0.0225908C 8.18413 0.0238458 8.17977 0.0251007 8.17354 0.0263557C 8.16606 0.0301205 8.16356 0.0313764 8.16606 0.0301205C 8.16855 0.0288656 8.16668 0.0301205 8.16045 0.0338863C 8.15421 0.0363961 8.14985 0.0382785 8.14736 0.0395335C 8.14611 0.0395335 8.14237 0.0414159 8.13613 0.0451817C 8.13115 0.0489465 8.12866 0.0508289 8.12866 0.0508289C 8.1274 0.0520839 8.12429 0.0545937 8.1193 0.0583585C 8.11307 0.0621243 8.11058 0.0640067 8.11182 0.0640067C 8.11058 0.0640067 8.10746 0.0665166 8.10247 0.0715364C 8.09873 0.0740463 8.09623 0.0759296 8.09499 0.0771846C 8.09499 0.0784395 8.0925 0.0815769 8.08751 0.0865966C 8.08377 0.0903615 8.0819 0.0928723 8.0819 0.0941272C 8.08066 0.0953822 8.07816 0.0978921 8.07442 0.101657C 8.07068 0.106678 8.06881 0.109815 8.06881 0.11107C 8.06756 0.112325 8.06507 0.115462 8.06132 0.120482C 8.05884 0.126758 8.05759 0.129895 8.05759 0.129895C 8.05385 0.136171 8.05073 0.142445 8.04824 0.14872L 7.36003 1.8204C 7.36003 1.82167 7.36003 1.82229 7.36003 1.82229L 7.12252 2.39646C 7.10008 2.45293 7.10008 2.50941 7.12252 2.56589C 7.1462 2.62237 7.1861 2.66252 7.2422 2.68637ZM 10.1886 1.12575L 10.1886 0.442398L 10.7422 0.442398C 10.8506 0.442398 10.9435 0.475651 11.0209 0.542167C 11.0982 0.608682 11.1368 0.689637 11.1368 0.78502C 11.1368 0.876634 11.1 0.955699 11.0264 1.02221C 10.9517 1.08748 10.8618 1.12199 10.7572 1.12575L 10.1886 1.12575ZM 11.5762 0.78502C 11.5762 0.567902 11.4947 0.382782 11.3313 0.229669C 11.1692 0.0765571 10.9728 2.23256e-08 10.7422 2.23256e-08L 9.96801 2.23256e-08C 9.90817 2.23256e-08 9.85637 0.0219634 9.8127 0.0658892C 9.77038 0.10856 9.74913 0.160643 9.74913 0.222139L 9.74913 2.46612C 9.74913 2.52636 9.77038 2.57844 9.8127 2.62237C 9.85637 2.66504 9.90817 2.68637 9.96801 2.68637C 10.0291 2.68637 10.0808 2.66504 10.1232 2.62237C 10.1668 2.57844 10.1886 2.52636 10.1886 2.46612L 10.1886 1.56815L 10.5683 1.56815L 11.0639 2.57906C 11.1038 2.6619 11.1692 2.70331 11.2603 2.70331C 11.2939 2.70331 11.3263 2.69579 11.3575 2.68072C 11.4123 2.65312 11.4491 2.61045 11.4679 2.55271C 11.4878 2.49498 11.4846 2.43913 11.4585 2.38516L 11.0339 1.5192C 11.1948 1.46273 11.3244 1.36797 11.4229 1.23494C 11.5252 1.10065 11.5762 0.950678 11.5762 0.78502Z"/>
<path id="path3_fill" d="M 6.72063 2.2022C 6.75912 2.27201 6.84654 2.2972 6.9159 2.25847C 6.98526 2.21972 7.01029 2.13171 6.9718 2.0619L 6.72063 2.2022ZM 0.0180657 2.0619C -0.0204223 2.13171 0.00460503 2.21972 0.0739645 2.25847C 0.143324 2.2972 0.230752 2.27201 0.269239 2.2022L 0.0180657 2.0619ZM 0.545463 6.22642C 0.497825 6.16258 0.40779 6.1497 0.344366 6.19766C 0.280942 6.24561 0.268147 6.33624 0.315786 6.40009L 0.545463 6.22642ZM 6.67408 6.40009C 6.72172 6.33624 6.70893 6.24561 6.6455 6.19766C 6.58208 6.1497 6.49204 6.16258 6.44441 6.22642L 6.67408 6.40009ZM 5.36152 0.799309C 5.4299 0.8398 5.51792 0.816836 5.55815 0.748015C 5.59837 0.679195 5.57556 0.59058 5.5072 0.550089L 5.36152 0.799309ZM 6.27651 1.14343C 6.21986 1.08754 6.12893 1.08845 6.0734 1.14547C 6.01786 1.20249 6.01877 1.29402 6.07541 1.34992L 6.27651 1.14343ZM 0.433339 6.55006C 0.48394 6.61155 0.574481 6.62011 0.635568 6.56918C 0.696656 6.51824 0.705157 6.42709 0.654556 6.3656L 0.433339 6.55006ZM 1.02013 6.75035C 0.961356 6.69673 0.870526 6.70122 0.817256 6.76039C 0.763986 6.81956 0.768448 6.91099 0.827222 6.96461L 1.02013 6.75035ZM 0.269239 2.2022C 0.898314 1.06101 2.10718 0.289157 3.49493 0.289157L 3.49493 0C 1.99864 0 0.695731 0.83256 0.0180657 2.0619L 0.269239 2.2022ZM 6.44441 6.22642C 5.77161 7.12808 4.7009 7.71084 3.49493 7.71084L 3.49493 8C 4.79507 8 5.94936 7.37132 6.67408 6.40009L 6.44441 6.22642ZM 3.49493 0.289157C 4.18247 0.287723 4.80869 0.470578 5.36152 0.799309L 5.5072 0.550089C 4.92237 0.205024 4.22282 0.00143325 3.49493 0L 3.49493 0.289157ZM 6.07541 1.34992C 6.33187 1.60248 6.54564 1.88396 6.72063 2.2022L 6.9718 2.0619C 6.78598 1.72559 6.54707 1.41095 6.27651 1.14343L 6.07541 1.34992ZM 0.654556 6.3656C 0.61675 6.31967 0.581077 6.27417 0.545463 6.22642L 0.315786 6.40009C 0.35347 6.45057 0.393374 6.50147 0.433339 6.55006L 0.654556 6.3656ZM 3.49493 7.71084C 2.53346 7.71365 1.68032 7.35554 1.02013 6.75035L 0.827222 6.96461C 1.52645 7.5997 2.4772 7.99719 3.49493 8L 3.49493 7.71084Z"/>
<path id="path4_fill" d="M 0.766007 0.53012C 0.766007 0.663201 0.658834 0.771084 0.52663 0.771084L 0.52663 1.06024C 0.81748 1.06024 1.05326 0.822898 1.05326 0.53012L 0.766007 0.53012ZM 0.52663 0.771084C 0.394426 0.771084 0.287253 0.663201 0.287253 0.53012L 0 0.53012C 0 0.822898 0.23578 1.06024 0.52663 1.06024L 0.52663 0.771084ZM 0.287253 0.53012C 0.287253 0.39704 0.394426 0.289157 0.52663 0.289157L 0.52663 0C 0.23578 0 0 0.237343 0 0.53012L 0.287253 0.53012ZM 0.52663 0.289157C 0.658834 0.289157 0.766007 0.39704 0.766007 0.53012L 1.05326 0.53012C 1.05326 0.237343 0.81748 0 0.52663 0L 0.52663 0.289157Z"/>
</defs>
</svg>
