<svg width="393" height="72" viewBox="0 0 393 72" version="1.1" xmlns="http://www.w3.org/2000/svg" xmlns:xlink="http://www.w3.org/1999/xlink">
<title>poweredby</title>
<desc>Created using Figma</desc>
<g id="Canvas" transform="matrix(3 0 0 3 2670 -39237)">
<g id="poweredby">
<g id="Powered By">
<use xlink:href="#path0_fill" transform="translate(-891 13084)"/>
</g>
<g id="logo_allwhite">
<g id="Canvas">
<g id="03">
<g id="THE">
<g id="Vector">
<use xlink:href="#path1_fill" transform="translate(-823 13087.2)"/>
</g>
</g>
<g id="SOLAR">
<g id="Vector">
<use xlink:href="#path2_fill" transform="translate(-796.679 13087.1)"/>
</g>
</g>
<g id="Ellipse 2">
<g id="Vector">
<use xlink:href="#path3_fill" transform="matrix(-0.826523 -0.562903 0.564807 -0.825223 -782.428 13107)"/>
</g>
</g>
<g id="Ellipse 2">
<g id="Vector">
<use xlink:href="#path4_fill" transform="translate(-780.33 13080.5)"/>
</g>
</g>
</g>
</g>
</g>
</g>
</g>
<defs>
<path id="path0_fill" d="M 1.02 2.684C 1.324 2.612 1.652 2.564 2.004 2.54C 2.356 2.516 2.704 2.504 3.048 2.504C 3.416 2.504 3.788 2.54 4.164 2.612C 4.548 2.684 4.896 2.816 5.208 3.008C 5.52 3.2 5.772 3.464 5.964 3.8C 6.164 4.136 6.264 4.564 6.264 5.084C 6.264 5.596 6.172 6.028 5.988 6.38C 5.804 6.732 5.56 7.02 5.256 7.244C 4.952 7.46 4.604 7.616 4.212 7.712C 3.82 7.808 3.416 7.856 3 7.856C 2.96 7.856 2.892 7.856 2.796 7.856C 2.708 7.856 2.612 7.856 2.508 7.856C 2.412 7.848 2.316 7.84 2.22 7.832C 2.124 7.824 2.056 7.816 2.016 7.808L 2.016 11L 1.02 11L 1.02 2.684ZM 3.072 3.368C 2.864 3.368 2.664 3.372 2.472 3.38C 2.28 3.388 2.128 3.408 2.016 3.44L 2.016 6.92C 2.056 6.936 2.12 6.948 2.208 6.956C 2.296 6.956 2.388 6.96 2.484 6.968C 2.58 6.968 2.672 6.968 2.76 6.968C 2.848 6.968 2.912 6.968 2.952 6.968C 3.224 6.968 3.492 6.944 3.756 6.896C 4.028 6.84 4.272 6.744 4.488 6.608C 4.704 6.472 4.876 6.28 5.004 6.032C 5.14 5.784 5.208 5.468 5.208 5.084C 5.208 4.756 5.144 4.484 5.016 4.268C 4.896 4.044 4.732 3.868 4.524 3.74C 4.324 3.604 4.096 3.508 3.84 3.452C 3.584 3.396 3.328 3.368 3.072 3.368ZM 6.85753 8C 6.85753 6.984 7.08153 6.208 7.52953 5.672C 7.98553 5.128 8.63753 4.856 9.48553 4.856C 9.93353 4.856 10.3215 4.932 10.6495 5.084C 10.9855 5.228 11.2615 5.44 11.4775 5.72C 11.6935 5.992 11.8535 6.324 11.9575 6.716C 12.0615 7.1 12.1135 7.528 12.1135 8C 12.1135 9.016 11.8855 9.796 11.4295 10.34C 10.9815 10.876 10.3335 11.144 9.48553 11.144C 9.03753 11.144 8.64553 11.072 8.30953 10.928C 7.98153 10.776 7.70953 10.564 7.49353 10.292C 7.27753 10.012 7.11753 9.68 7.01353 9.296C 6.90953 8.904 6.85753 8.472 6.85753 8ZM 7.85353 8C 7.85353 8.304 7.88153 8.596 7.93753 8.876C 8.00153 9.156 8.09753 9.4 8.22553 9.608C 8.35353 9.816 8.52153 9.984 8.72953 10.112C 8.93753 10.24 9.18953 10.304 9.48553 10.304C 10.5735 10.312 11.1175 9.544 11.1175 8C 11.1175 7.688 11.0855 7.392 11.0215 7.112C 10.9655 6.832 10.8735 6.588 10.7455 6.38C 10.6175 6.172 10.4495 6.008 10.2415 5.888C 10.0335 5.76 9.78153 5.696 9.48553 5.696C 8.39753 5.688 7.85353 6.456 7.85353 8ZM 17.3862 5L 18.7662 8.504L 19.0662 9.656L 19.0902 9.656L 19.3182 8.48L 20.3862 5L 21.2982 5L 19.2822 11.132L 18.8142 11.132L 17.2422 7.172L 17.0142 6.188L 16.9782 6.188L 16.7382 7.184L 15.2262 11.132L 14.7582 11.132L 12.6702 5L 13.7142 5L 14.9022 8.492L 15.1062 9.656L 15.1182 9.656L 15.4062 8.468L 16.6902 5L 17.3862 5ZM 26.5735 10.52C 26.3335 10.712 26.0295 10.864 25.6615 10.976C 25.3015 11.088 24.9175 11.144 24.5095 11.144C 24.0535 11.144 23.6575 11.072 23.3215 10.928C 22.9855 10.776 22.7095 10.564 22.4935 10.292C 22.2775 10.012 22.1175 9.68 22.0135 9.296C 21.9095 8.912 21.8575 8.48 21.8575 8C 21.8575 6.976 22.0855 6.196 22.5415 5.66C 22.9975 5.124 23.6495 4.856 24.4975 4.856C 24.7695 4.856 25.0415 4.888 25.3135 4.952C 25.5855 5.008 25.8295 5.12 26.0455 5.288C 26.2615 5.456 26.4375 5.696 26.5735 6.008C 26.7095 6.312 26.7775 6.716 26.7775 7.22C 26.7775 7.484 26.7535 7.776 26.7055 8.096L 22.8535 8.096C 22.8535 8.448 22.8895 8.76 22.9615 9.032C 23.0335 9.304 23.1455 9.536 23.2975 9.728C 23.4495 9.912 23.6455 10.056 23.8855 10.16C 24.1335 10.256 24.4335 10.304 24.7855 10.304C 25.0575 10.304 25.3295 10.256 25.6015 10.16C 25.8735 10.064 26.0775 9.952 26.2135 9.824L 26.5735 10.52ZM 24.5095 5.696C 24.0375 5.696 23.6575 5.82 23.3695 6.068C 23.0895 6.316 22.9215 6.74 22.8655 7.34L 25.8415 7.34C 25.8415 6.732 25.7255 6.308 25.4935 6.068C 25.2615 5.82 24.9335 5.696 24.5095 5.696ZM 31.1193 5.924C 30.8793 5.844 30.6513 5.804 30.4353 5.804C 30.0913 5.804 29.8193 5.9 29.6193 6.092C 29.4193 6.276 29.2953 6.512 29.2473 6.8L 29.2473 11L 28.2873 11L 28.2873 5L 28.9593 5L 29.1393 5.732L 29.1873 5.732C 29.3393 5.46 29.5193 5.252 29.7273 5.108C 29.9433 4.956 30.2153 4.88 30.5433 4.88C 30.7753 4.88 31.0353 4.92 31.3233 5L 31.1193 5.924ZM 36.7454 10.52C 36.5054 10.712 36.2014 10.864 35.8334 10.976C 35.4734 11.088 35.0894 11.144 34.6814 11.144C 34.2254 11.144 33.8294 11.072 33.4934 10.928C 33.1574 10.776 32.8814 10.564 32.6654 10.292C 32.4494 10.012 32.2894 9.68 32.1854 9.296C 32.0814 8.912 32.0294 8.48 32.0294 8C 32.0294 6.976 32.2574 6.196 32.7134 5.66C 33.1694 5.124 33.8214 4.856 34.6694 4.856C 34.9414 4.856 35.2134 4.888 35.4854 4.952C 35.7574 5.008 36.0014 5.12 36.2174 5.288C 36.4334 5.456 36.6094 5.696 36.7454 6.008C 36.8814 6.312 36.9494 6.716 36.9494 7.22C 36.9494 7.484 36.9254 7.776 36.8774 8.096L 33.0254 8.096C 33.0254 8.448 33.0614 8.76 33.1334 9.032C 33.2054 9.304 33.3174 9.536 33.4694 9.728C 33.6214 9.912 33.8174 10.056 34.0574 10.16C 34.3054 10.256 34.6054 10.304 34.9574 10.304C 35.2294 10.304 35.5014 10.256 35.7734 10.16C 36.0454 10.064 36.2494 9.952 36.3854 9.824L 36.7454 10.52ZM 34.6814 5.696C 34.2094 5.696 33.8294 5.82 33.5414 6.068C 33.2614 6.316 33.0934 6.74 33.0374 7.34L 36.0134 7.34C 36.0134 6.732 35.8974 6.308 35.6654 6.068C 35.4334 5.82 35.1054 5.696 34.6814 5.696ZM 43.0672 8.936C 43.0672 9.344 43.0712 9.716 43.0792 10.052C 43.0872 10.38 43.1232 10.704 43.1872 11.024L 42.5392 11.024L 42.2992 10.172L 42.2512 10.172C 42.0912 10.452 41.8592 10.684 41.5552 10.868C 41.2512 11.052 40.8952 11.144 40.4872 11.144C 39.6872 11.144 39.0912 10.892 38.6992 10.388C 38.3152 9.884 38.1232 9.096 38.1232 8.024C 38.1232 7 38.3632 6.224 38.8432 5.696C 39.3312 5.16 39.9992 4.892 40.8472 4.892C 41.1432 4.892 41.3752 4.908 41.5432 4.94C 41.7192 4.972 41.9072 5.024 42.1072 5.096L 42.1072 2.6L 43.0672 2.6L 43.0672 8.936ZM 40.6432 10.304C 41.0512 10.304 41.3752 10.2 41.6152 9.992C 41.8552 9.776 42.0192 9.452 42.1072 9.02L 42.1072 6.044C 41.9632 5.932 41.7992 5.852 41.6152 5.804C 41.4312 5.756 41.1872 5.732 40.8832 5.732C 40.3312 5.732 39.8992 5.916 39.5872 6.284C 39.2752 6.644 39.1192 7.224 39.1192 8.024C 39.1192 8.352 39.1432 8.656 39.1912 8.936C 39.2472 9.216 39.3352 9.456 39.4552 9.656C 39.5752 9.856 39.7312 10.016 39.9232 10.136C 40.1232 10.248 40.3632 10.304 40.6432 10.304ZM 53.2754 4.52C 53.2754 4.72 53.2434 4.924 53.1794 5.132C 53.1154 5.34 53.0194 5.536 52.8914 5.72C 52.7634 5.896 52.5994 6.052 52.3994 6.188C 52.1994 6.324 51.9634 6.428 51.6914 6.5L 51.6914 6.548C 51.9314 6.588 52.1594 6.656 52.3754 6.752C 52.5994 6.848 52.7954 6.98 52.9634 7.148C 53.1314 7.316 53.2674 7.52 53.3714 7.76C 53.4754 8 53.5274 8.284 53.5274 8.612C 53.5274 9.044 53.4354 9.42 53.2514 9.74C 53.0754 10.052 52.8394 10.308 52.5434 10.508C 52.2554 10.708 51.9234 10.856 51.5474 10.952C 51.1714 11.048 50.7874 11.096 50.3954 11.096C 50.2594 11.096 50.0994 11.096 49.9154 11.096C 49.7314 11.096 49.5394 11.088 49.3394 11.072C 49.1394 11.064 48.9394 11.048 48.7394 11.024C 48.5394 11.008 48.3634 10.98 48.2114 10.94L 48.2114 2.672C 48.5074 2.624 48.8514 2.584 49.2434 2.552C 49.6354 2.52 50.0634 2.504 50.5274 2.504C 50.8394 2.504 51.1554 2.532 51.4754 2.588C 51.8034 2.636 52.0994 2.736 52.3634 2.888C 52.6274 3.032 52.8434 3.236 53.0114 3.5C 53.1874 3.764 53.2754 4.104 53.2754 4.52ZM 50.4914 10.232C 50.7474 10.232 50.9954 10.204 51.2354 10.148C 51.4754 10.084 51.6874 9.988 51.8714 9.86C 52.0554 9.724 52.1994 9.56 52.3034 9.368C 52.4154 9.176 52.4714 8.948 52.4714 8.684C 52.4714 8.356 52.4034 8.092 52.2674 7.892C 52.1394 7.692 51.9674 7.536 51.7514 7.424C 51.5434 7.312 51.3074 7.236 51.0434 7.196C 50.7794 7.156 50.5154 7.136 50.2514 7.136L 49.2074 7.136L 49.2074 10.148C 49.2634 10.164 49.3434 10.176 49.4474 10.184C 49.5514 10.192 49.6634 10.2 49.7834 10.208C 49.9034 10.216 50.0274 10.224 50.1554 10.232C 50.2834 10.232 50.3954 10.232 50.4914 10.232ZM 49.8314 6.296C 49.9674 6.296 50.1314 6.292 50.3234 6.284C 50.5154 6.276 50.6754 6.264 50.8034 6.248C 50.9954 6.184 51.1754 6.108 51.3434 6.02C 51.5114 5.924 51.6594 5.816 51.7874 5.696C 51.9234 5.568 52.0274 5.424 52.0994 5.264C 52.1794 5.096 52.2194 4.916 52.2194 4.724C 52.2194 4.46 52.1674 4.244 52.0634 4.076C 51.9674 3.9 51.8354 3.76 51.6674 3.656C 51.4994 3.552 51.3074 3.48 51.0914 3.44C 50.8754 3.392 50.6554 3.368 50.4314 3.368C 50.1674 3.368 49.9234 3.376 49.6994 3.392C 49.4834 3.4 49.3194 3.416 49.2074 3.44L 49.2074 6.296L 49.8314 6.296ZM 56.8872 8.888L 57.2232 10.04L 57.2832 10.04L 57.5472 8.876L 58.7112 5L 59.6832 5L 57.9072 10.388C 57.7712 10.78 57.6352 11.16 57.4992 11.528C 57.3712 11.896 57.2272 12.224 57.0672 12.512C 56.9072 12.8 56.7272 13.028 56.5272 13.196C 56.3272 13.372 56.0952 13.46 55.8312 13.46C 55.5432 13.46 55.3072 13.42 55.1232 13.34L 55.2912 12.512C 55.3952 12.552 55.4952 12.572 55.5912 12.572C 55.8152 12.572 56.0312 12.452 56.2392 12.212C 56.4472 11.98 56.6192 11.576 56.7552 11L 54.3432 5L 55.4472 5L 56.8872 8.888Z"/>
<path id="path1_fill" d="M 1.23696e-08 1.5181L 1.23696e-08 0.0230015L 6.38721 0.0230015L 6.38721 1.5181L 4.17359 1.5181L 4.17359 8.09652L 2.20209 8.09652L 2.20209 1.5181L 1.23696e-08 1.5181ZM 12.6637 0.0230015L 14.6352 0.0230015L 14.6352 8.09652L 12.6637 8.09652L 12.6637 4.74981L 9.53928 4.74981L 9.53928 8.09652L 7.56777 8.09652L 7.56777 0.0230015L 9.53928 0.0230015L 9.53928 3.25471L 12.6637 3.25471L 12.6637 0.0230015ZM 21.261 4.38719e-08L 21.261 1.4951L 18.3326 1.4951L 18.3326 3.23171L 20.9151 3.23171L 20.9151 4.72681L 18.3326 4.72681L 18.3326 6.60143L 21.261 6.60143L 21.261 8.09652L 16.3611 8.09652L 16.3611 4.38719e-08L 21.261 4.38719e-08Z"/>
<path id="path2_fill" d="M 2.9169 1.5526C 2.67095 1.5526 2.46726 1.61778 2.30585 1.74811C 2.15213 1.87845 2.07527 2.06631 2.07527 2.31165C 2.07527 2.55699 2.14828 2.75635 2.29432 2.90969C 2.44037 3.05537 2.62867 3.17038 2.85926 3.25471C 3.09754 3.33139 3.35885 3.40804 3.64324 3.48472C 3.93531 3.55373 4.22354 3.64191 4.50794 3.74924C 4.79234 3.84892 5.04981 3.97543 5.2804 4.12877C 5.51868 4.2821 5.71082 4.50061 5.85686 4.78431C 6.00291 5.06033 6.07592 5.39385 6.07592 5.78487C 6.07592 6.46724 5.79538 7.05378 5.23428 7.54449C 4.68088 8.02752 3.94684 8.26903 3.03219 8.26903C 2.12523 8.26903 1.3912 8.05052 0.830106 7.61349C 0.276702 7.17646 2.74879e-08 6.55542 2.74879e-08 5.75037L 2.09832 5.75037C 2.15213 6.39441 2.48262 6.71643 3.08984 6.71643C 3.37424 6.71643 3.59713 6.64361 3.75854 6.49792C 3.91995 6.34459 4.00065 6.1529 4.00065 5.92288C 4.00065 5.69287 3.92764 5.50503 3.7816 5.35935C 3.63555 5.21366 3.44341 5.09865 3.20513 5.01432C 2.97455 4.92999 2.71321 4.85331 2.42114 4.78431C 2.13675 4.70763 1.85237 4.61562 1.56798 4.50829C 1.28359 4.40096 1.02226 4.27445 0.783989 4.12877C 0.553404 3.97543 0.365094 3.76074 0.219056 3.48472C 0.0730177 3.20103 2.74879e-08 2.86751 2.74879e-08 2.48416C 2.74879e-08 1.73279 0.280544 1.1309 0.841636 0.678544C 1.40273 0.226191 2.11754 1.31616e-07 2.98608 1.31616e-07C 3.8623 1.31616e-07 4.56942 0.199337 5.10746 0.598039C 5.6455 0.989064 5.92604 1.6101 5.9491 2.46116L 3.80465 2.46116C 3.7739 2.16982 3.67783 1.94745 3.51642 1.79412C 3.36271 1.63311 3.16285 1.5526 2.9169 1.5526ZM 12.8604 5.81938C 13.2524 5.39767 13.4484 4.83414 13.4484 4.12877C 13.4484 3.4234 13.2524 2.85986 12.8604 2.43816C 12.4761 2.01645 11.9573 1.80562 11.304 1.80562C 10.6583 1.80562 10.1395 2.01645 9.74752 2.43816C 9.36322 2.85986 9.17106 3.4234 9.17106 4.12877C 9.17106 4.83414 9.36322 5.39767 9.74752 5.81938C 10.1395 6.24108 10.6583 6.45192 11.304 6.45192C 11.9573 6.45192 12.4761 6.24108 12.8604 5.81938ZM 8.36401 7.09596C 7.56466 6.31391 7.16497 5.32484 7.16497 4.12877C 7.16497 2.93269 7.56466 1.94745 8.36401 1.17308C 9.17106 0.391025 10.1549 1.31616e-07 11.3155 1.31616e-07C 12.4838 1.31616e-07 13.4638 0.391025 14.2555 1.17308C 15.0548 1.94745 15.4545 2.93269 15.4545 4.12877C 15.4545 5.32484 15.0548 6.31391 14.2555 7.09596C 13.4561 7.87801 12.4761 8.26903 11.3155 8.26903C 10.1549 8.26903 9.17106 7.87801 8.36401 7.09596ZM 18.9489 0.138009C 18.2456 0.138009 17.5654 0.138009 16.8736 0.138009L 16.8736 8.18853C 18.5108 8.18853 20.2171 8.18853 21.8773 8.18853C 21.8773 7.49848 21.8773 7.02695 21.8773 6.33691L 18.9489 6.33691C 18.9489 2.90969 18.9489 4.30128 18.9489 0.138009ZM 28.272 8.18853L 27.8225 6.83144L 24.9171 6.83144L 24.4675 8.18853L 22.3692 8.18853L 25.1823 0.092006L 27.5804 0.092006L 30.3819 8.18853L 28.272 8.18853ZM 25.4129 5.33635L 27.3268 5.33635L 26.3698 2.46116L 25.4129 5.33635ZM 33.3207 5.04883L 33.3207 8.18853L 31.3492 8.18853L 31.3492 0.115007L 34.5428 0.115007C 35.4804 0.115007 36.2108 0.356523 36.7334 0.839554C 37.2559 1.32259 37.5174 1.9053 37.5174 2.58767C 37.5174 3.05537 37.3753 3.51155 37.0908 3.95626C 36.8063 4.40096 36.3414 4.7153 35.6957 4.89932L 37.6788 8.18853L 35.3729 8.18853L 33.5513 5.04883L 33.3207 5.04883ZM 33.3207 1.6101L 33.3207 3.55373L 34.5428 3.55373C 34.8426 3.55373 35.0769 3.46555 35.2461 3.28921C 35.4228 3.11288 35.5113 2.88286 35.5113 2.59917C 35.5113 2.30783 35.4228 2.07013 35.2461 1.88612C 35.0694 1.70211 34.8348 1.6101 34.5428 1.6101L 33.3207 1.6101Z"/>
<path id="path3_fill" d="M 0 11.5098C 0 11.6687 0.128944 11.7976 0.288005 11.7976C 0.447066 11.7976 0.57601 11.6687 0.57601 11.5098L 0 11.5098ZM 23.0881 10.147C 23.0693 9.98917 22.9261 9.87643 22.7681 9.89513C 22.6102 9.91387 22.4973 10.057 22.5161 10.2148L 23.0881 10.147ZM 22.5587 10.6464C 22.5711 10.8048 22.7097 10.9232 22.8683 10.9107C 23.0269 10.8983 23.1453 10.7598 23.1329 10.6013L 22.5587 10.6464ZM 23.1527 12.1154C 23.161 11.9567 23.0389 11.8214 22.8801 11.8131C 22.7212 11.8048 22.5858 11.9268 22.5775 12.0855L 23.1527 12.1154ZM 8.13983 22.2007L 8.05256 22.4749L 8.13983 22.2007ZM 5.97579 21.2533L 6.11838 21.0033L 5.97579 21.2533ZM 12.4664 22.4096C 12.3078 22.422 12.1894 22.5606 12.2019 22.719C 12.2144 22.8775 12.3531 22.9957 12.5116 22.9833L 12.4664 22.4096ZM 9.95714 22.907C 10.1147 22.929 10.2602 22.8192 10.2823 22.6618C 10.3043 22.5044 10.1944 22.359 10.0369 22.337L 9.95714 22.907ZM 2.83652 18.1486C 2.7395 18.0227 2.55867 17.9992 2.43262 18.0961C 2.30658 18.193 2.28304 18.3737 2.38006 18.4996L 2.83652 18.1486ZM 15.5418 1.30329C 15.6903 1.36015 15.8568 1.28595 15.9137 1.13755C 15.9707 0.989151 15.8964 0.822759 15.7479 0.765898L 15.5418 1.30329ZM 0.586522 11.0275C 0.593457 10.8687 0.470258 10.7344 0.311349 10.7275C 0.152439 10.7205 0.0179957 10.8436 0.0110608 11.0024L 0.586522 11.0275ZM 0.156907 9.61121C 0.130717 9.76795 0.23667 9.91622 0.393559 9.94241C 0.550449 9.96857 0.698864 9.8627 0.725055 9.70597L 0.156907 9.61121ZM 22.5161 10.2148C 22.5332 10.3588 22.5472 10.5008 22.5587 10.6464L 23.1329 10.6013C 23.121 10.45 23.1058 10.2966 23.0881 10.147L 22.5161 10.2148ZM 8.22712 21.9264C 7.48222 21.6902 6.78543 21.3835 6.11838 21.0033L 5.83319 21.5033C 6.52636 21.8975 7.27855 22.2285 8.05256 22.4749L 8.22712 21.9264ZM 22.5775 12.0855C 22.2915 17.5641 17.9442 21.9783 12.4664 22.4096L 12.5116 22.9833C 18.2743 22.5296 22.8515 17.8859 23.1527 12.1154L 22.5775 12.0855ZM 10.0369 22.337C 9.41145 22.2499 8.81456 22.1133 8.22712 21.9264L 8.05256 22.4749C 8.66287 22.6685 9.3072 22.8159 9.95714 22.907L 10.0369 22.337ZM 6.11838 21.0033C 4.8329 20.2731 3.73087 19.3118 2.83652 18.1486L 2.38006 18.4996C 3.31119 19.706 4.49921 20.7422 5.83319 21.5033L 6.11838 21.0033ZM 11.5842 0.575491C 12.9881 0.57418 14.3055 0.828859 15.5418 1.30329L 15.7479 0.765898C 14.4638 0.275532 13.043 0.00131068 11.5842 0L 11.5842 0.575491ZM 0.57601 11.5098C 0.575993 11.3472 0.579475 11.1884 0.586522 11.0275L 0.0110608 11.0024C 0.00377488 11.1696 1.72803e-05 11.3409 0 11.5098L 0.57601 11.5098ZM 0.725055 9.70597C 1.59044 4.52667 6.12212 0.575491 11.5842 0.575491L 11.5842 0C 5.83835 0 1.06827 4.15668 0.156907 9.61121L 0.725055 9.70597Z"/>
<path id="path4_fill" d="M 2.38002 1.46786C 2.38002 1.95941 1.97783 2.36068 1.47824 2.36068L 1.47824 2.93572C 2.29311 2.93572 2.95648 2.28007 2.95648 1.46786L 2.38002 1.46786ZM 1.47824 2.36068C 0.978655 2.36068 0.576463 1.95941 0.576463 1.46786L 0 1.46786C 0 2.28007 0.663379 2.93572 1.47824 2.93572L 1.47824 2.36068ZM 0.576463 1.46786C 0.576463 0.976307 0.978655 0.575037 1.47824 0.575037L 1.47824 0C 0.663379 0 0 0.655643 0 1.46786L 0.576463 1.46786ZM 1.47824 0.575037C 1.97783 0.575037 2.38002 0.976307 2.38002 1.46786L 2.95648 1.46786C 2.95648 0.655643 2.29311 0 1.47824 0L 1.47824 0.575037Z"/>
</defs>
</svg>
