<svg width="171" height="20" viewBox="0 0 171 20" version="1.1" xmlns="http://www.w3.org/2000/svg" xmlns:xlink="http://www.w3.org/1999/xlink" xmlns:figma="http://www.figma.com/figma/ns">
<title>aommoney logo[P&#39;win]-03</title>
<desc>Created using Figma</desc>
<g id="Canvas" transform="translate(1146 2381)" figma:type="canvas">
<g id="aommoney logo[P&#39;win]-03" style="mix-blend-mode:normal;" figma:type="frame">
<g id="Vector" style="mix-blend-mode:normal;" figma:type="vector">
<use xlink:href="#path0_fill" transform="translate(-1145.55 -2380.98)" fill="#00B2B4" style="mix-blend-mode:normal;"/>
</g>
<g id="Vector" style="mix-blend-mode:normal;" figma:type="vector">
<use xlink:href="#path1_fill" transform="translate(-1125.98 -2380.97)" fill="#00B2B4" style="mix-blend-mode:normal;"/>
</g>
<g id="Vector" style="mix-blend-mode:normal;" figma:type="vector">
<use xlink:href="#path2_fill" transform="translate(-1103.78 -2381)" fill="#00B2B4" style="mix-blend-mode:normal;"/>
</g>
<g id="Vector" style="mix-blend-mode:normal;" figma:type="vector">
<use xlink:href="#path3_fill" transform="translate(-1068.5 -2380.76)" fill="#00B2B4" style="mix-blend-mode:normal;"/>
</g>
<g id="Vector" style="mix-blend-mode:normal;" figma:type="vector">
<use xlink:href="#path4_fill" transform="translate(-1046.87 -2380.87)" fill="#00B2B4" style="mix-blend-mode:normal;"/>
</g>
<g id="Vector" style="mix-blend-mode:normal;" figma:type="vector">
<use xlink:href="#path5_fill" transform="translate(-1026.47 -2380.76)" fill="#00B2B4" style="mix-blend-mode:normal;"/>
</g>
<g id="Vector" style="mix-blend-mode:normal;" figma:type="vector">
<use xlink:href="#path6_fill" transform="translate(-1006.46 -2380.76)" fill="#00B2B4" style="mix-blend-mode:normal;"/>
</g>
<g id="Vector" style="mix-blend-mode:normal;" figma:type="vector">
<use xlink:href="#path7_fill" transform="translate(-992.61 -2380.76)" fill="#00B2B4" style="mix-blend-mode:normal;"/>
</g>
</g>
</g>
<defs>
<path id="path0_fill" d="M 6.31746 19.9193C 5.44007 19.9299 4.56821 19.7729 3.74468 19.456C 3.00756 19.1734 2.33126 18.7408 1.75484 18.1832C 1.20865 17.6525 0.770195 17.0122 0.465654 16.3003C 0.159362 15.5947 0.00074074 14.8288 0.000423701 14.0538C -0.010305 13.2117 0.182503 12.3805 0.560941 11.6372C 0.948536 10.8983 1.49082 10.2606 2.14721 9.772C 2.89247 9.23521 3.72132 8.83825 4.59667 8.5989C 5.6291 8.30953 6.69489 8.17136 7.76359 8.18831C 8.70308 8.19121 9.64065 8.27754 10.5662 8.4464C 11.4463 8.59397 12.3088 8.83976 13.139 9.17959L 13.139 7.41993C 13.1751 6.683 13.0703 5.94594 12.8306 5.25197C 12.5909 4.558 12.2213 3.92109 11.7433 3.37859C 11.2498 2.8716 10.6614 2.47698 10.0151 2.21957C 9.36876 1.96216 8.67852 1.84752 7.9878 1.88288C 6.98066 1.88618 5.98286 2.08506 5.04508 2.46943C 3.98962 2.90948 2.98847 3.48057 2.06313 4.17043L 1.21675 2.51049C 2.30207 1.73452 3.47499 1.1021 4.70877 0.627658C 5.84096 0.208648 7.03353 -0.00364436 8.23443 4.78815e-05C 10.4765 4.78815e-05 12.2515 0.676537 13.5593 2.02952C 14.8672 3.3825 15.5249 5.25164 15.5324 7.63695L 15.5324 16.3238C 15.5324 17.0159 15.8126 17.3561 16.3787 17.3561L 16.3787 19.5674L 15.8519 19.6202L 15.4259 19.6202C 14.9619 19.6236 14.5095 19.4692 14.1367 19.1803C 13.9415 19.0219 13.7821 18.8205 13.6697 18.5904C 13.5573 18.3603 13.4948 18.1071 13.4865 17.8488L 13.4192 16.3355C 12.6006 17.4836 11.514 18.3925 10.2635 18.975C 9.02906 19.5852 7.68265 19.9074 6.31746 19.9193ZM 6.91721 18.0013C 8.00576 17.9945 9.08084 17.7487 10.0729 17.2799C 11.0503 16.8571 11.9073 16.1785 12.5616 15.3091C 12.7279 15.0852 12.8707 14.8433 12.9876 14.5876C 13.0957 14.3635 13.155 14.1171 13.1614 13.8661L 13.1614 10.7515C 12.3484 10.4293 11.51 10.182 10.6559 10.0125C 9.81899 9.84403 8.96893 9.75763 8.11672 9.7544C 6.65128 9.68593 5.19844 10.065 3.93526 10.8454C 3.43629 11.1522 3.02465 11.5929 2.74283 12.1219C 2.46102 12.6508 2.31925 13.2489 2.33218 13.8544C 2.33181 14.373 2.42696 14.8868 2.61244 15.3677C 2.80668 15.8706 3.10093 16.3244 3.47563 16.6992C 3.8896 17.1101 4.37472 17.4346 4.90495 17.6553C 5.54611 17.9146 6.23007 18.0382 6.91721 18.0189L 6.91721 18.0013Z"/>
<path id="path1_fill" d="M 9.13656 19.9075C 7.86906 19.922 6.6133 19.652 5.45396 19.1156C 4.36342 18.6103 3.38015 17.8825 2.56169 16.9747C 1.7432 16.0537 1.10187 14.9763 0.672746 13.8015C 0.223905 12.5895 -0.0042267 11.3004 0.000126366 10.0006C -0.00622836 8.68758 0.227797 7.38544 0.689561 6.16455C 1.13102 4.98905 1.77936 3.91068 2.60093 2.98544C 3.4202 2.06966 4.40274 1.33041 5.4932 0.809331C 6.64015 0.275723 7.88137 3.46617e-07 9.13656 3.46617e-07C 10.3918 3.46617e-07 11.633 0.275723 12.7799 0.809331C 13.8701 1.33094 14.8525 2.07012 15.6722 2.98544C 16.4912 3.90943 17.1376 4.98572 17.578 6.15868C 18.05 7.37943 18.2936 8.6837 18.2954 10.0006C 18.3 11.302 18.0659 12.5923 17.606 13.8015C 17.1668 14.975 16.5203 16.0516 15.7002 16.9747C 14.8833 17.8888 13.8999 18.6227 12.808 19.1332C 11.6515 19.6643 10.3993 19.9284 9.13656 19.9075ZM 2.47201 10.0358C 2.46193 11.0632 2.63491 12.0837 2.98208 13.0448C 3.30734 13.9394 3.78603 14.7644 4.39458 15.479C 4.98819 16.1749 5.71351 16.7342 6.52455 17.1213C 7.3376 17.515 8.2239 17.7154 9.11974 17.7079C 10.0141 17.7188 10.8993 17.5183 11.7093 17.1213C 12.5068 16.7091 13.2205 16.1395 13.8113 15.4438C 14.4329 14.7262 14.923 13.8951 15.2574 12.992C 15.9625 11.0478 15.9625 8.90061 15.2574 6.95639C 14.9267 6.04437 14.4362 5.20493 13.8113 4.48114C 13.2133 3.78924 12.494 3.22376 11.6925 2.81534C 10.889 2.41685 10.0089 2.2162 9.11974 2.22879C 8.22532 2.21743 7.34003 2.41795 6.53016 2.81534C 5.72208 3.22024 5.0012 3.793 4.4114 4.49874C 3.14488 6.03738 2.45566 8.00511 2.47201 10.0358Z"/>
<path id="path2_fill" d="M 27.3196 19.5886L 24.9206 19.5886L 24.9206 8.85472C 24.9206 6.61409 24.5862 4.96588 23.9173 3.91008C 23.5839 3.39324 23.127 2.97673 22.592 2.70198C 22.0571 2.42723 21.4627 2.30381 20.8681 2.34399C 20.1857 2.33996 19.5094 2.47752 18.8782 2.74871C 18.244 3.03575 17.6604 3.43231 17.1518 3.92182C 16.6078 4.43472 16.1377 5.02744 15.7562 5.68147C 15.3501 6.37632 15.0423 7.12906 14.8425 7.91623L 14.8425 19.6473L 12.4435 19.6473L 12.4435 8.85472C 12.4435 6.56716 12.1146 4.90527 11.457 3.86902C 11.1225 3.36162 10.6675 2.95415 10.1367 2.68674C 9.60598 2.41933 9.01782 2.3012 8.43018 2.34399C 7.05613 2.33655 5.73109 2.87776 4.72516 3.8573C 3.60488 4.92981 2.79828 6.31285 2.39901 7.84585L 2.39901 19.5886L -5.13169e-07 19.5886L -5.13169e-07 0.361444L 2.18602 0.361444L 2.18602 4.6902C 2.87232 3.29126 3.89405 2.10283 5.15115 1.24127C 6.35683 0.421873 7.76611 -0.00851643 9.2037 0.00364696C 10.5662 -0.0480801 11.8952 0.451933 12.9143 1.39964C 13.8656 2.34352 14.4622 3.61291 14.5959 4.97761C 16.3111 1.68119 18.6858 0.0329764 21.7201 0.0329764C 22.616 0.00563931 23.5047 0.206951 24.3096 0.619526C 25.0184 1.00931 25.6145 1.59057 26.036 2.30293C 26.501 3.1102 26.8237 3.99824 26.9889 4.92482C 27.1972 6.04941 27.2967 7.19309 27.286 8.33855L 27.286 19.5886L 27.3196 19.5886Z"/>
<path id="path3_fill" d="M 14.7696 19.5908L 14.7696 7.85979L 10.7059 16.3941L 8.38534 16.3941L 4.32719 7.86566L 4.32719 19.5967L -3.42113e-06 19.5967L -3.42113e-06 -8.95007e-08L 4.69153 -8.95007e-08L 9.54561 10.2353L 14.4277 -8.95007e-08L 19.1136 -8.95007e-08L 19.1136 19.5908L 14.7865 19.5908L 14.7696 19.5908Z"/>
<path id="path4_fill" d="M 8.90664 19.8731C 7.64654 19.8913 6.40013 19.5979 5.26888 19.0168C 4.20445 18.465 3.25262 17.702 2.46629 16.7703C 1.67904 15.8334 1.06171 14.754 0.644606 13.5853C 0.216628 12.4028 -0.00180264 11.1486 1.43215e-05 9.88416C -0.00293683 7.34009 0.898071 4.88573 2.52795 2.99805C 3.33119 2.08239 4.2987 1.34099 5.37538 0.816072C 6.50144 0.265852 7.73119 -0.0127689 8.9739 0.000764862C 10.2358 -0.0170343 11.4839 0.276337 12.6173 0.85713C 13.6845 1.41195 14.6368 2.18129 15.4198 3.12122C 16.2099 4.06261 16.8274 5.14825 17.2415 6.32379C 17.6583 7.48878 17.8728 8.72233 17.8749 9.96628C 17.8699 12.5099 16.9677 14.962 15.3414 16.8524C 14.5418 17.7702 13.5783 18.5155 12.5052 19.0461C 11.3811 19.6036 10.1505 19.8865 8.90664 19.8731ZM 4.4225 9.93696C 4.42075 10.6797 4.52272 11.4188 4.72517 12.1307C 4.91234 12.8064 5.20598 13.4448 5.59398 14.0194C 5.9662 14.5665 6.45076 15.0194 7.01209 15.345C 7.61438 15.6843 8.28993 15.856 8.9739 15.8435C 9.66649 15.8606 10.3505 15.6802 10.9525 15.3215C 11.505 14.972 11.9806 14.5043 12.3482 13.949C 12.7283 13.3708 13.009 12.7277 13.1778 12.0485C 13.361 11.3431 13.4534 10.6152 13.4524 9.88416C 13.4542 9.14141 13.3522 8.40237 13.1498 7.69046C 12.9626 7.01507 12.6628 6.37963 12.2641 5.81349C 11.8849 5.2786 11.3991 4.83631 10.8404 4.51721C 10.2493 4.18781 9.58742 4.02224 8.91784 4.03624C 8.22666 4.01904 7.54361 4.19521 6.93922 4.54654C 6.38229 4.88132 5.9006 5.33739 5.52672 5.88388C 5.139 6.45704 4.84887 7.09601 4.66913 7.77258C 4.48354 8.4774 4.39298 9.2059 4.40007 9.93696L 4.4225 9.93696Z"/>
<path id="path5_fill" d="M 4.32719 8.38769L 4.32719 19.5908L 8.21071e-06 19.5908L 8.21071e-06 -8.95007e-08L 3.36311 -8.95007e-08L 12.1072 11.4906L 12.1072 -8.95007e-08L 16.4344 -8.95007e-08L 16.4344 19.5908L 12.9536 19.5908L 4.32719 8.38769Z"/>
<path id="path6_fill" d="M 13.1609 15.5964L 13.1609 19.5674L 3.42113e-06 19.5674L 3.42113e-06 -8.95007e-08L 12.9199 -8.95007e-08L 12.9199 3.97096L 4.3272 3.97096L 4.3272 7.78354L 11.7092 7.78354L 11.7092 11.4495L 4.3272 11.4495L 4.3272 15.5964L 13.1609 15.5964Z"/>
<path id="path7_fill" d="M 4.69154 -8.95007e-08L 8.72725 8.99771L 12.8415 -8.95007e-08L 17.533 -8.95007e-08L 10.8853 12.9041L 10.8853 19.5908L 6.55805 19.5908L 6.55805 12.8572L -6.84225e-06 -8.95007e-08L 4.69154 -8.95007e-08Z"/>
</defs>
</svg>
