<svg width="146" height="17" viewBox="0 0 146 17" version="1.1" xmlns="http://www.w3.org/2000/svg" xmlns:xlink="http://www.w3.org/1999/xlink" xmlns:figma="http://www.figma.com/figma/ns">
<title>aommoney logo[P&#39;win]-03</title>
<desc>Created using Figma</desc>
<g id="Canvas" transform="translate(-3046 2388)" figma:type="canvas">
<g id="aommoney logo[P&#39;win]-03" style="mix-blend-mode:normal;" figma:type="frame">
<g id="Vector" style="mix-blend-mode:normal;" figma:type="vector">
<use xlink:href="#path0_fill" transform="translate(3046.53 -2387.98)" fill="#00B2B4" style="mix-blend-mode:normal;"/>
</g>
<g id="Vector" style="mix-blend-mode:normal;" figma:type="vector">
<use xlink:href="#path1_fill" transform="translate(3063.17 -2387.97)" fill="#00B2B4" style="mix-blend-mode:normal;"/>
</g>
<g id="Vector" style="mix-blend-mode:normal;" figma:type="vector">
<use xlink:href="#path2_fill" transform="translate(3082.04 -2388)" fill="#00B2B4" style="mix-blend-mode:normal;"/>
</g>
<g id="Vector" style="mix-blend-mode:normal;" figma:type="vector">
<use xlink:href="#path3_fill" transform="translate(3112.03 -2387.8)" fill="#00B2B4" style="mix-blend-mode:normal;"/>
</g>
<g id="Vector" style="mix-blend-mode:normal;" figma:type="vector">
<use xlink:href="#path4_fill" transform="translate(3130.41 -2387.89)" fill="#00B2B4" style="mix-blend-mode:normal;"/>
</g>
<g id="Vector" style="mix-blend-mode:normal;" figma:type="vector">
<use xlink:href="#path5_fill" transform="translate(3147.75 -2387.8)" fill="#00B2B4" style="mix-blend-mode:normal;"/>
</g>
<g id="Vector" style="mix-blend-mode:normal;" figma:type="vector">
<use xlink:href="#path6_fill" transform="translate(3164.77 -2387.8)" fill="#00B2B4" style="mix-blend-mode:normal;"/>
</g>
<g id="Vector" style="mix-blend-mode:normal;" figma:type="vector">
<use xlink:href="#path7_fill" transform="translate(3176.54 -2387.8)" fill="#00B2B4" style="mix-blend-mode:normal;"/>
</g>
</g>
</g>
<defs>
<path id="path0_fill" d="M 5.36984 16.9314C 4.62406 16.9404 3.88297 16.8069 3.18298 16.5376C 2.55643 16.2974 1.98157 15.9297 1.49162 15.4557C 1.02735 15.0046 0.654665 14.4603 0.395806 13.8553C 0.135458 13.2555 0.000629629 12.6045 0.000360146 11.9458C -0.00875925 11.23 0.155128 10.5234 0.4768 9.89165C 0.806256 9.26354 1.2672 8.72154 1.82513 8.3062C 2.4586 7.84993 3.16312 7.51251 3.90717 7.30906C 4.78474 7.0631 5.69066 6.94565 6.59905 6.96006C 7.39762 6.96252 8.19455 7.03591 8.98125 7.17944C 9.72938 7.30487 10.4625 7.5138 11.1681 7.80265L 11.1681 6.30694C 11.1988 5.68055 11.1097 5.05405 10.906 4.46417C 10.7023 3.8743 10.3881 3.33292 9.98178 2.8718C 9.56233 2.44086 9.06218 2.10543 8.51281 1.88663C 7.96344 1.66783 7.37674 1.57039 6.78963 1.60045C 5.93356 1.60325 5.08543 1.7723 4.28832 2.09902C 3.39117 2.47306 2.5402 2.95849 1.75366 3.54487L 1.03424 2.13392C 1.95676 1.47434 2.95374 0.936787 4.00246 0.533509C 4.96481 0.177351 5.9785 -0.0030977 6.99926 4.06993e-05C 8.90502 4.06993e-05 10.4137 0.575057 11.5254 1.72509C 12.6371 2.87512 13.1962 4.46389 13.2025 6.49141L 13.2025 13.8752C 13.2025 14.4635 13.4407 14.7527 13.9219 14.7527L 13.9219 16.6323L 13.4741 16.6772L 13.112 16.6772C 12.7176 16.6801 12.3331 16.5488 12.0162 16.3032C 11.8503 16.1686 11.7148 15.9975 11.6193 15.8019C 11.5237 15.6063 11.4706 15.391 11.4635 15.1715L 11.4063 13.8852C 10.7105 14.8611 9.78693 15.6336 8.72398 16.1287C 7.6747 16.6474 6.53025 16.9213 5.36984 16.9314ZM 5.87963 15.3011C 6.8049 15.2953 7.71871 15.0864 8.56199 14.6879C 9.39274 14.3286 10.1212 13.7517 10.6774 13.0127C 10.8187 12.8224 10.9401 12.6168 11.0395 12.3995C 11.1313 12.209 11.1818 11.9995 11.1872 11.7862L 11.1872 9.13881C 10.4961 8.86494 9.7835 8.65474 9.05748 8.51062C 8.34614 8.36743 7.62359 8.29399 6.89921 8.29124C 5.65358 8.23304 4.41868 8.55524 3.34497 9.21858C 2.92085 9.47939 2.57095 9.85395 2.33141 10.3036C 2.09187 10.7532 1.97137 11.2616 1.98235 11.7762C 1.98204 12.217 2.06292 12.6538 2.22057 13.0625C 2.38568 13.49 2.63579 13.8758 2.95429 14.1943C 3.30616 14.5436 3.71851 14.8194 4.16921 15.007C 4.7142 15.2274 5.29556 15.3325 5.87963 15.3161L 5.87963 15.3011Z"/>
<path id="path1_fill" d="M 7.76608 16.9213C 6.6887 16.9337 5.6213 16.7042 4.63587 16.2483C 3.70891 15.8188 2.87313 15.2001 2.17744 14.4285C 1.48172 13.6456 0.936592 12.7298 0.571834 11.7312C 0.19032 10.7011 -0.00359269 9.60531 0.000107411 8.50051C -0.0052941 7.38444 0.193628 6.27762 0.586127 5.23987C 0.961364 4.24069 1.51246 3.32408 2.21079 2.53762C 2.90717 1.75921 3.74233 1.13085 4.66922 0.687931C 5.64413 0.234365 6.69916 2.94625e-07 7.76608 2.94625e-07C 8.833 2.94625e-07 9.88803 0.234365 10.8629 0.687931C 11.7896 1.1313 12.6247 1.7596 13.3214 2.53762C 14.0175 3.32301 14.5669 4.23786 14.9413 5.23488C 15.3425 6.27251 15.5495 7.38114 15.5511 8.50051C 15.555 9.60672 15.356 10.7034 14.9651 11.7312C 14.5918 12.7288 14.0422 13.6438 13.3452 14.4285C 12.6508 15.2055 11.8149 15.8293 10.8868 16.2632C 9.9038 16.7147 8.83941 16.9391 7.76608 16.9213ZM 2.10121 8.53042C 2.09264 9.40376 2.23967 10.2711 2.53477 11.0881C 2.81124 11.8485 3.21813 12.5497 3.73539 13.1571C 4.23997 13.7487 4.85649 14.2241 5.54587 14.5531C 6.23696 14.8878 6.99031 15.058 7.75178 15.0517C 8.51201 15.061 9.26443 14.8906 9.95294 14.5531C 10.6307 14.2028 11.2374 13.7186 11.7396 13.1272C 12.2679 12.5173 12.6846 11.8109 12.9688 11.0432C 13.5682 9.39062 13.5682 7.56552 12.9688 5.91293C 12.6877 5.13772 12.2708 4.42419 11.7396 3.80897C 11.2313 3.22086 10.6199 2.7402 9.93864 2.39304C 9.25562 2.05432 8.50755 1.88377 7.75178 1.89447C 6.99152 1.88482 6.23903 2.05526 5.55063 2.39304C 4.86377 2.7372 4.25102 3.22405 3.74969 3.82393C 2.67315 5.13177 2.08731 6.80434 2.10121 8.53042Z"/>
<path id="path2_fill" d="M 23.2217 16.6503L 21.1825 16.6503L 21.1825 7.52651C 21.1825 5.62197 20.8982 4.22099 20.3297 3.32357C 20.0463 2.88425 19.6579 2.53022 19.2032 2.29668C 18.7485 2.06314 18.2433 1.95824 17.7379 1.99239C 17.1579 1.98897 16.583 2.10589 16.0465 2.33641C 15.5074 2.58039 15.0114 2.91747 14.5791 3.33354C 14.1166 3.76952 13.717 4.27332 13.3927 4.82925C 13.0476 5.41988 12.786 6.0597 12.6161 6.7288L 12.6161 16.7002L 10.577 16.7002L 10.577 7.52651C 10.577 5.58209 10.2975 4.16948 9.73843 3.28867C 9.45411 2.85738 9.06734 2.51103 8.61621 2.28373C 8.16508 2.05643 7.66515 1.95602 7.16566 1.99239C 5.99771 1.98607 4.87142 2.4461 4.01639 3.2787C 3.06415 4.19034 2.37854 5.36593 2.03916 6.66897L 2.03916 16.6503L -4.36194e-07 16.6503L -4.36194e-07 0.307227L 1.85812 0.307227L 1.85812 3.98667C 2.44147 2.79757 3.30994 1.78741 4.37848 1.05508C 5.4033 0.358592 6.6012 -0.00723897 7.82315 0.00309992C 8.98124 -0.0408681 10.1109 0.384143 10.9772 1.1897C 11.7858 1.992 12.2929 3.07098 12.4065 4.23097C 13.8644 1.42901 15.8829 0.0280299 18.462 0.0280299C 19.2236 0.00479341 19.979 0.175908 20.6632 0.526597C 21.2657 0.857911 21.7723 1.35198 22.1306 1.95749C 22.5259 2.64367 22.8002 3.3985 22.9406 4.1861C 23.1176 5.142 23.2022 6.11413 23.1931 7.08777L 23.1931 16.6503L 23.2217 16.6503Z"/>
<path id="path3_fill" d="M 12.5542 16.6522L 12.5542 6.68083L 9.1 13.935L 7.12754 13.935L 3.67811 6.68581L 3.67811 16.6572L -2.90796e-06 16.6572L -2.90796e-06 -7.60756e-08L 3.9878 -7.60756e-08L 8.11377 8.70003L 12.2636 -7.60756e-08L 16.2466 -7.60756e-08L 16.2466 16.6522L 12.5685 16.6522L 12.5542 16.6522Z"/>
<path id="path4_fill" d="M 7.57064 16.8922C 6.49956 16.9076 5.44011 16.6582 4.47854 16.1643C 3.57378 15.6952 2.76473 15.0467 2.09635 14.2547C 1.42719 13.4584 0.902456 12.5409 0.547915 11.5475C 0.184134 10.5424 -0.00153224 9.47632 1.21733e-05 8.40154C -0.0024963 6.23908 0.763361 4.15287 2.14875 2.54834C 2.83151 1.77003 3.65389 1.13984 4.56907 0.693661C 5.52622 0.225974 6.57151 -0.0108536 7.62781 0.000650133C 8.70039 -0.0144791 9.76131 0.234886 10.7247 0.728561C 11.6318 1.20016 12.4413 1.8541 13.1069 2.65304C 13.7784 3.45322 14.3033 4.37602 14.6553 5.37522C 15.0096 6.36546 15.1919 7.41398 15.1937 8.47134C 15.1895 10.6334 14.4226 12.7177 13.0402 14.3245C 12.3605 15.1047 11.5415 15.7382 10.6294 16.1892C 9.6739 16.6631 8.62796 16.9035 7.57064 16.8922ZM 3.75912 8.44641C 3.75764 9.07776 3.84431 9.70594 4.0164 10.3111C 4.17549 10.8855 4.42508 11.428 4.75488 11.9165C 5.07127 12.3815 5.48314 12.7665 5.96027 13.0432C 6.47223 13.3317 7.04644 13.4776 7.62781 13.467C 8.21652 13.4815 8.7979 13.3282 9.30965 13.0233C 9.77925 12.7262 10.1835 12.3287 10.496 11.8566C 10.8191 11.3652 11.0577 10.8186 11.2011 10.2413C 11.3568 9.64163 11.4354 9.02292 11.4346 8.40154C 11.4361 7.7702 11.3494 7.14201 11.1773 6.53689C 11.0182 5.96281 10.7633 5.42269 10.4245 4.94147C 10.1021 4.48681 9.68924 4.11087 9.21436 3.83963C 8.7119 3.55964 8.14931 3.4189 7.58017 3.4308C 6.99266 3.41619 6.41207 3.56593 5.89833 3.86456C 5.42495 4.14912 5.01551 4.53678 4.69771 5.0013C 4.36815 5.48848 4.12154 6.03161 3.96876 6.60669C 3.81101 7.20579 3.73403 7.82502 3.74006 8.44641L 3.75912 8.44641Z"/>
<path id="path5_fill" d="M 3.67811 7.12954L 3.67811 16.6522L 6.9791e-06 16.6522L 6.9791e-06 -7.60756e-08L 2.85865 -7.60756e-08L 10.2911 9.76697L 10.2911 -7.60756e-08L 13.9692 -7.60756e-08L 13.9692 16.6522L 11.0105 16.6522L 3.67811 7.12954Z"/>
<path id="path6_fill" d="M 11.1868 13.257L 11.1868 16.6323L 2.90796e-06 16.6323L 2.90796e-06 -7.60756e-08L 10.9819 -7.60756e-08L 10.9819 3.37531L 3.67812 3.37531L 3.67812 6.61601L 9.95282 6.61601L 9.95282 9.73207L 3.67812 9.73207L 3.67812 13.257L 11.1868 13.257Z"/>
<path id="path7_fill" d="M 3.98781 -7.60756e-08L 7.41817 7.64805L 10.9152 -7.60756e-08L 14.903 -7.60756e-08L 9.25246 10.9685L 9.25246 16.6522L 5.57435 16.6522L 5.57435 10.9286L -5.81592e-06 -7.60756e-08L 3.98781 -7.60756e-08Z"/>
</defs>
</svg>
